<?xml version="1.0" encoding="UTF-8"?>
<svg width="152px" height="34px" viewBox="0 0 152 34" version="1.1" xmlns="http://www.w3.org/2000/svg" xmlns:xlink="http://www.w3.org/1999/xlink">
    <title>branch</title>
    <g id="Page-1" stroke="none" stroke-width="1" fill="none" fill-rule="evenodd">
        <g id="Desktop-Copy-40" transform="translate(-139.000000, -69.000000)" fill="#212121" fill-rule="nonzero">
            <path d="M153.95,102.12 C156.924667,102.12 159.263,101.184667 160.965,99.314 C162.667,97.4433333 163.579333,94.7753333 163.702,91.31 C163.732667,90.9113333 163.748,90.3746667 163.748,89.7 C163.748,88.9946667 163.732667,88.4426667 163.702,88.044 C163.579333,84.7013333 162.659333,82.0716667 160.942,80.155 C159.224667,78.2383333 156.894,77.28 153.95,77.28 C151.19,77.28 148.966667,78.1693333 147.28,79.948 L147.28,79.948 L147.28,70.15 C147.28,69.8126667 147.172667,69.5366667 146.958,69.322 C146.743333,69.1073333 146.467333,69 146.13,69 L146.13,69 L140.196,69 C139.858667,69 139.575,69.1073333 139.345,69.322 C139.115,69.5366667 139,69.8126667 139,70.15 L139,70.15 L139,100.51 C139,100.847333 139.115,101.123333 139.345,101.338 C139.575,101.552667 139.858667,101.66 140.196,101.66 L140.196,101.66 L145.67,101.66 C146.007333,101.66 146.283333,101.545 146.498,101.315 C146.712667,101.085 146.82,100.816667 146.82,100.51 L146.82,100.51 L146.82,99.084 C148.476,101.108 150.852667,102.12 153.95,102.12 Z M151.282,95.726 C149.963333,95.726 148.982,95.3043333 148.338,94.461 C147.694,93.6176667 147.341333,92.552 147.28,91.264 C147.249333,90.8346667 147.234,90.252 147.234,89.516 L147.234719,89.2479062 C147.238073,88.6408021 147.253167,88.1628333 147.28,87.814 C147.341333,86.618 147.701667,85.629 148.361,84.847 C149.020333,84.065 149.994,83.674 151.282,83.674 C152.662,83.674 153.651,84.0803333 154.249,84.893 C154.847,85.7056667 155.192,86.8326667 155.284,88.274 C155.314667,88.5806667 155.33,89.056 155.33,89.7 C155.33,90.344 155.314667,90.8193333 155.284,91.126 C155.192,92.5673333 154.847,93.6943333 154.249,94.507 C153.651,95.3196667 152.662,95.726 151.282,95.726 Z M173.886,101.66 C174.223333,101.66 174.507,101.552667 174.737,101.338 C174.967,101.123333 175.082,100.847333 175.082,100.51 L175.082,100.51 L175.082,88.918 C175.082,87.6913333 175.411667,86.7406667 176.071,86.066 C176.730333,85.3913333 177.673333,85.054 178.9,85.054 L178.9,85.054 L183.546,85.054 C183.883333,85.054 184.159333,84.939 184.374,84.709 C184.588667,84.479 184.696,84.2106667 184.696,83.904 L184.696,83.904 L184.696,78.89 C184.696,78.5526667 184.588667,78.2766667 184.374,78.062 C184.159333,77.8473333 183.883333,77.74 183.546,77.74 L183.546,77.74 L181.476,77.74 C180.065333,77.74 178.785,77.993 177.635,78.499 C176.485,79.005 175.480667,79.7333333 174.622,80.684 L174.622,80.684 L174.622,78.936 C174.622,78.5986667 174.507,78.315 174.277,78.085 C174.047,77.855 173.763333,77.74 173.426,77.74 L173.426,77.74 L167.814,77.74 C167.476667,77.74 167.200667,77.855 166.986,78.085 C166.771333,78.315 166.664,78.5986667 166.664,78.936 L166.664,78.936 L166.664,100.51 C166.664,100.816667 166.779,101.085 167.009,101.315 C167.239,101.545 167.507333,101.66 167.814,101.66 L167.814,101.66 L173.886,101.66 Z M193.178,102.12 C194.834,102.12 196.26,101.821 197.456,101.223 C198.652,100.625 199.587333,99.8506667 200.262,98.9 L200.262,98.9 L200.262,100.51 C200.262,100.816667 200.377,101.085 200.607,101.315 C200.837,101.545 201.105333,101.66 201.412,101.66 L201.412,101.66 L207.07,101.66 C207.407333,101.66 207.683333,101.545 207.898,101.315 C208.112667,101.085 208.22,100.816667 208.22,100.51 L208.22,100.51 L208.22,86.572 C208.22,83.72 207.3,81.4583333 205.46,79.787 C203.62,78.1156667 200.798667,77.28 196.996,77.28 C194.604,77.28 192.595333,77.648 190.97,78.384 C189.344667,79.12 188.133333,80.0016667 187.336,81.029 C186.538667,82.0563333 186.124667,82.984 186.094,83.812 C186.063333,84.088 186.147667,84.3256667 186.347,84.525 C186.546333,84.7243333 186.799333,84.824 187.106,84.824 L187.106,84.824 L192.442,84.824 C192.626,84.824 192.779333,84.7166667 192.902,84.502 C193.208667,84.3486667 193.561333,84.1033333 193.96,83.766 C194.481333,83.3366667 194.949,83.0146667 195.363,82.8 C195.777,82.5853333 196.290667,82.478 196.904,82.478 C198.008,82.478 198.79,82.7386667 199.25,83.26 C199.71,83.7813333 199.94,84.6093333 199.94,85.744 L199.94,85.744 L199.94,86.296 L194.236,87.17 C191.2,87.6606667 188.815667,88.5576667 187.083,89.861 C185.350333,91.1643333 184.484,92.8586667 184.484,94.944 C184.484,96.2626667 184.859667,97.474 185.611,98.578 C186.362333,99.682 187.405,100.548333 188.739,101.177 C190.073,101.805667 191.552667,102.12 193.178,102.12 Z M195.478,96.692 C194.588667,96.692 193.845,96.4773333 193.247,96.048 C192.649,95.6186667 192.35,95.0513333 192.35,94.346 C192.35,92.9966667 193.638,92.0766667 196.214,91.586 L196.214,91.586 L200.032,90.942 L200.032,91.494 C200.032,93.1806667 199.610333,94.4686667 198.767,95.358 C197.923667,96.2473333 196.827333,96.692 195.478,96.692 Z M219.002,101.66 C219.339333,101.66 219.615333,101.545 219.83,101.315 C220.044667,101.085 220.152,100.816667 220.152,100.51 L220.152,100.51 L220.152,87.952 C220.152,86.6026667 220.504667,85.5523333 221.21,84.801 C221.915333,84.0496667 222.881333,83.674 224.108,83.674 C225.365333,83.674 226.323667,84.042 226.983,84.778 C227.642333,85.514 227.972,86.572 227.972,87.952 L227.972,87.952 L227.972,100.51 C227.972,100.847333 228.087,101.123333 228.317,101.338 C228.547,101.552667 228.830667,101.66 229.168,101.66 L229.168,101.66 L235.286,101.66 C235.623333,101.66 235.899333,101.545 236.114,101.315 C236.328667,101.085 236.436,100.816667 236.436,100.51 L236.436,100.51 L236.436,87.676 C236.436,85.468 236.045,83.582 235.263,82.018 C234.481,80.454 233.407667,79.2733333 232.043,78.476 C230.678333,77.6786667 229.122,77.28 227.374,77.28 C225.687333,77.28 224.192333,77.5866667 222.889,78.2 C221.585667,78.8133333 220.52,79.626 219.692,80.638 L219.692,80.638 L219.692,78.89 C219.692,78.5526667 219.584667,78.2766667 219.37,78.062 C219.155333,77.8473333 218.879333,77.74 218.542,77.74 L218.542,77.74 L212.884,77.74 C212.577333,77.74 212.309,77.8473333 212.079,78.062 C211.849,78.2766667 211.734,78.5526667 211.734,78.89 L211.734,78.89 L211.734,100.51 C211.734,100.816667 211.849,101.085 212.079,101.315 C212.309,101.545 212.577333,101.66 212.884,101.66 L212.884,101.66 L219.002,101.66 Z M251.082,102.12 C253.842,102.12 256.142,101.614 257.982,100.602 C259.822,99.59 261.163667,98.417 262.007,97.083 C262.850333,95.749 263.272,94.6066667 263.272,93.656 C263.272,93.3493333 263.149333,93.0886667 262.904,92.874 C262.658667,92.6593333 262.382667,92.552 262.076,92.552 L262.076,92.552 L255.912,92.552 C255.574667,92.552 255.314,92.6286667 255.13,92.782 C254.946,92.9353333 254.777333,93.1806667 254.624,93.518 C254.286667,94.4073333 253.865,95.0436667 253.359,95.427 C252.853,95.8103333 252.155333,96.002 251.266,96.002 C250.07,96.002 249.165333,95.6263333 248.552,94.875 C247.938667,94.1236667 247.616667,92.9506667 247.586,91.356 L247.586,91.356 L247.54,89.838 L247.586,88.09 C247.678,84.962 248.904667,83.398 251.266,83.398 C252.094,83.398 252.776333,83.5973333 253.313,83.996 C253.849667,84.3946667 254.286667,85.0233333 254.624,85.882 C254.777333,86.2193333 254.946,86.4646667 255.13,86.618 C255.314,86.7713333 255.574667,86.848 255.912,86.848 L255.912,86.848 L262.076,86.848 C262.413333,86.848 262.704667,86.733 262.95,86.503 C263.195333,86.273 263.302667,85.9893333 263.272,85.652 C263.210667,84.5786667 262.735333,83.3903333 261.846,82.087 C260.956667,80.7836667 259.607333,79.6566667 257.798,78.706 C255.988667,77.7553333 253.75,77.28 251.082,77.28 C247.586,77.28 244.749333,78.2153333 242.572,80.086 C240.394667,81.9566667 239.244667,84.548 239.122,87.86 L239.122,87.86 L239.076,89.746 L239.122,91.586 C239.275333,94.898 240.433,97.4816667 242.595,99.337 C244.757,101.192333 247.586,102.12 251.082,102.12 Z M273.134,101.66 C273.471333,101.66 273.755,101.552667 273.985,101.338 C274.215,101.123333 274.33,100.847333 274.33,100.51 L274.33,100.51 L274.33,87.952 C274.33,86.6026667 274.682667,85.5523333 275.388,84.801 C276.093333,84.0496667 277.059333,83.674 278.286,83.674 C279.543333,83.674 280.509333,84.0496667 281.184,84.801 C281.858667,85.5523333 282.196,86.6026667 282.196,87.952 L282.196,87.952 L282.196,100.51 C282.196,100.816667 282.311,101.085 282.541,101.315 C282.771,101.545 283.039333,101.66 283.346,101.66 L283.346,101.66 L289.602,101.66 C289.939333,101.66 290.223,101.552667 290.453,101.338 C290.683,101.123333 290.798,100.847333 290.798,100.51 L290.798,100.51 L290.798,87.676 C290.798,85.468 290.399333,83.582 289.602,82.018 C288.804667,80.454 287.700667,79.2733333 286.29,78.476 C284.879333,77.6786667 283.3,77.28 281.552,77.28 C278.516,77.28 276.108667,78.3226667 274.33,80.408 L274.33,80.408 L274.33,70.15 C274.33,69.8126667 274.215,69.5366667 273.985,69.322 C273.755,69.1073333 273.471333,69 273.134,69 L273.134,69 L266.924,69 C266.586667,69 266.303,69.1073333 266.073,69.322 C265.843,69.5366667 265.728,69.8126667 265.728,70.15 L265.728,70.15 L265.728,100.51 C265.728,100.847333 265.843,101.123333 266.073,101.338 C266.303,101.552667 266.586667,101.66 266.924,101.66 L266.924,101.66 L273.134,101.66 Z" id="branch"></path>
        </g>
    </g>
</svg>