<?xml version="1.0" encoding="UTF-8"?>
<svg width="129px" height="52px" viewBox="0 0 129 52" version="1.1" xmlns="http://www.w3.org/2000/svg" xmlns:xlink="http://www.w3.org/1999/xlink">
    <title>Group 46</title>
    <defs>
        <polygon id="path-1" points="0.190639113 0.292347007 10.0591391 0.292347007 10.0591391 10.4353741 0.190639113 10.4353741"></polygon>
        <polygon id="path-3" points="0.00109233871 0.23427415 3.12206008 0.23427415 3.12206008 14.3223423 0.00109233871 14.3223423"></polygon>
    </defs>
    <g id="Page-1" stroke="none" stroke-width="1" fill="none" fill-rule="evenodd">
        <g id="Desktop-Copy-40" transform="translate(-1240.000000, -60.000000)">
            <g id="Group-45" transform="translate(1240.000000, 60.000000)">
                <path d="M59.5516536,15.1647901 C58.5342181,14.3012629 57.9942907,13.0359737 57.9318714,11.370488 C57.9193875,11.0318601 57.9131456,10.4813941 57.9131456,9.71752476 C57.9131456,8.94061116 57.9193875,8.37762272 57.9318714,8.02647238 C57.9942907,6.39855401 58.5404601,5.1431785 59.5703794,4.26086762 C60.6002988,3.37803497 61.9953714,2.93609687 63.7555972,2.93609687 C64.8671819,2.93609687 65.8622504,3.11819415 66.7423633,3.4808234 C67.6224762,3.84397442 68.318452,4.36991728 68.8308109,5.05865197 C69.3426496,5.74738667 69.6105327,6.56134585 69.6355004,7.50105129 C69.6355004,7.61323156 69.5949278,7.70714993 69.5143028,7.78280639 C69.4326375,7.85794109 69.3364077,7.89498667 69.2240528,7.89498667 L66.5644681,7.89498667 C66.389694,7.89498667 66.2617343,7.86054993 66.1811093,7.79219823 C66.099444,7.72332476 66.0276617,7.59496966 65.9652423,7.40661116 C65.7904681,6.79405469 65.5251859,6.36411728 65.1693956,6.12045129 C64.8141254,5.87574177 64.3423391,5.75364789 63.7555972,5.75364789 C62.3449198,5.75364789 61.6146133,6.54308395 61.5646778,8.12091252 C61.552194,8.45849687 61.545952,8.9781785 61.545952,9.67995741 C61.545952,10.3817363 61.552194,10.9134186 61.5646778,11.2765697 C61.6146133,12.8543982 62.3449198,13.6427907 63.7555972,13.6427907 C64.3298552,13.6427907 64.8011214,13.5186098 65.1693956,13.267639 C65.5376698,13.0171901 65.802952,12.5914268 65.9652423,11.9903493 C66.0151778,11.8025125 66.0838391,11.6741574 66.1712262,11.6052839 C66.2586133,11.5364105 66.389694,11.5019737 66.5644681,11.5019737 L69.2240528,11.5019737 C69.3364077,11.5019737 69.4326375,11.5395411 69.5143028,11.614154 C69.5949278,11.6892887 69.6355004,11.7832071 69.6355004,11.8964309 C69.6105327,12.8361363 69.3426496,13.6500955 68.8308109,14.3388302 C68.318452,15.0270431 67.6224762,15.552986 66.7423633,15.916137 C65.8622504,16.279288 64.8671819,16.4608635 63.7555972,16.4608635 C61.9704036,16.4608635 60.5690891,16.0293608 59.5516536,15.1647901" id="Fill-1" fill="#020303"></path>
                <path d="M71.4803565,16.1415933 C71.3872476,16.0544579 71.3399129,15.9412341 71.3399129,15.8040089 L71.3399129,3.40521912 C71.3399129,3.26799395 71.3872476,3.1552919 71.4803565,3.06763476 C71.5739855,2.98049939 71.6894613,2.93614905 71.827304,2.93614905 L74.1680298,2.93614905 C74.3048323,2.93614905 74.4171871,2.98049939 74.5045742,3.06763476 C74.5919613,3.1552919 74.6356548,3.26799395 74.6356548,3.40521912 L74.6356548,15.8040089 C74.6356548,15.9292334 74.5919613,16.0382831 74.5045742,16.1322014 C74.4171871,16.2266416 74.3048323,16.273079 74.1680298,16.273079 L71.827304,16.273079 C71.6894613,16.273079 71.5739855,16.2292504 71.4803565,16.1415933" id="Fill-3" fill="#020303"></path>
                <path d="M76.9110484,16.1324101 C76.8179395,16.0384918 76.7706048,15.9289203 76.7706048,15.8036959 L76.7706048,6.97484755 C76.7706048,6.83762238 76.8179395,6.72439857 76.9110484,6.6372632 C77.0046774,6.54908429 77.1139113,6.50473395 77.23875,6.50473395 L79.5794758,6.50473395 C79.7167984,6.50473395 79.8322742,6.54908429 79.9259032,6.6372632 C80.0200524,6.72439857 80.0663468,6.83762238 80.0663468,6.97484755 L80.0663468,15.8036959 C80.0663468,15.9414428 80.0200524,16.0546666 79.9259032,16.141802 C79.8322742,16.2294591 79.7167984,16.2732877 79.5794758,16.2732877 L77.23875,16.2732877 C77.1139113,16.2732877 77.0046774,16.2263285 76.9110484,16.1324101 M76.9016855,5.01195367 C76.8142984,4.91803531 76.7706048,4.80272442 76.7706048,4.66445571 L76.7706048,2.91705231 C76.7706048,2.77930537 76.8179395,2.66399449 76.9110484,2.57007612 C77.0046774,2.47615776 77.1139113,2.4286768 77.23875,2.4286768 L79.5794758,2.4286768 C79.7167984,2.4286768 79.8322742,2.47615776 79.9259032,2.57007612 C80.0200524,2.66399449 80.0663468,2.77930537 80.0663468,2.91705231 L80.0663468,4.66445571 C80.0663468,4.80272442 80.0200524,4.91803531 79.9259032,5.01195367 C79.8322742,5.10587204 79.7167984,5.15283122 79.5794758,5.15283122 L77.23875,5.15283122 C77.1014274,5.15283122 76.9890726,5.10587204 76.9016855,5.01195367" id="Fill-5" fill="#020303"></path>
                <path d="M82.3412202,16.1324101 C82.2481113,16.0384918 82.2007766,15.9289203 82.2007766,15.8036959 L82.2007766,6.97484755 C82.2007766,6.83762238 82.2481113,6.72439857 82.3412202,6.6372632 C82.4348492,6.54908429 82.5440831,6.50473395 82.6689218,6.50473395 L84.8411153,6.50473395 C84.9784379,6.50473395 85.0907927,6.54908429 85.1787,6.6372632 C85.2655669,6.72439857 85.3097806,6.83762238 85.3097806,6.97484755 L85.3097806,7.61297068 C85.6088734,7.25034143 85.9958734,6.94354143 86.4702605,6.69309245 C86.9446476,6.44316524 87.4819742,6.31741898 88.0806798,6.31741898 C89.4544258,6.31741898 90.3964379,6.85588429 90.9087968,7.9328149 C91.2084097,7.45748361 91.6266194,7.06876592 92.1634258,6.76874891 C92.7002323,6.46768837 93.2744903,6.31741898 93.8867202,6.31741898 C94.9098774,6.31741898 95.7431758,6.66439517 96.3860952,7.36043463 C97.0290145,8.05490878 97.3509944,9.09114143 97.3509944,10.4686108 L97.3509944,15.8036959 C97.3509944,15.9289203 97.3067806,16.0384918 97.2199137,16.1324101 C97.1320065,16.2263285 97.0196516,16.2732877 96.882329,16.2732877 L94.5790548,16.2732877 C94.4417323,16.2732877 94.3267766,16.2294591 94.2326274,16.141802 C94.1389984,16.0546666 94.0921839,15.9414428 94.0921839,15.8036959 L94.0921839,10.6000965 C94.0921839,10.0245856 93.9704661,9.60195299 93.7270306,9.33219857 C93.4835952,9.06296592 93.1558935,8.92834959 92.7439258,8.92834959 C92.3569258,8.92834959 92.0417081,9.06296592 91.7982726,9.33219857 C91.5548371,9.60195299 91.4331194,10.0245856 91.4331194,10.6000965 L91.4331194,15.8036959 C91.4331194,15.9289203 91.3889056,16.0384918 91.3020387,16.1324101 C91.2146516,16.2263285 91.1022968,16.2732877 90.9649742,16.2732877 L88.6617,16.2732877 C88.5238573,16.2732877 88.4089016,16.2294591 88.3152726,16.141802 C88.2216435,16.0546666 88.174829,15.9414428 88.174829,15.8036959 L88.174829,10.6000965 C88.174829,10.0245856 88.0494702,9.60195299 87.8003129,9.33219857 C87.5501153,9.06296592 87.2260548,8.92834959 86.8260508,8.92834959 C86.4390508,8.92834959 86.1212323,9.06296592 85.8710347,9.33219857 C85.6213573,9.60195299 85.4965185,10.0178027 85.4965185,10.5807911 L85.4965185,15.8036959 C85.4965185,15.9289203 85.452825,16.0384918 85.3654379,16.1324101 C85.2780508,16.2263285 85.165696,16.2732877 85.0288935,16.2732877 L82.6689218,16.2732877 C82.5440831,16.2732877 82.4348492,16.2263285 82.3412202,16.1324101" id="Fill-7" fill="#020303"></path>
                <path d="M104.607088,13.6996114 C104.950395,13.3364603 105.122048,12.8105175 105.122048,12.1217828 L105.122048,11.8963787 L103.567806,12.1593501 C102.519161,12.3597093 101.994838,12.7359046 101.994838,13.2863705 C101.994838,13.5749086 102.116556,13.8060522 102.359992,13.9818882 C102.603427,14.1566807 102.905641,14.2443379 103.268193,14.2443379 C103.817483,14.2443379 104.263782,14.0627624 104.607088,13.6996114 M100.524862,16.0757461 C99.9818141,15.8190359 99.5573625,15.4652767 99.2515077,15.0144685 C98.9456528,14.5641821 98.7927254,14.0695454 98.7927254,13.5305583 C98.7927254,12.6790318 99.1453948,11.9871665 99.8507335,11.4544406 C100.556072,10.9227583 101.526693,10.5564767 102.762596,10.3561175 L105.084596,9.99922769 L105.084596,9.77382361 C105.084596,9.31049299 104.990967,8.9718651 104.804229,8.75950524 C104.616451,8.54662361 104.298113,8.44018279 103.848693,8.44018279 C103.599016,8.44018279 103.389911,8.48348959 103.221379,8.5716685 C103.052846,8.65932565 102.862467,8.79081136 102.650242,8.96612565 C102.487951,9.10335082 102.344387,9.20353041 102.219548,9.26614265 C102.169612,9.35432156 102.107193,9.39762837 102.03229,9.39762837 L99.8600964,9.39762837 C99.7352577,9.39762837 99.6322657,9.35745218 99.5511206,9.27553449 C99.4699754,9.19466034 99.4356448,9.09761136 99.4481286,8.98490932 C99.4600923,8.64628143 99.6291448,8.26799912 99.9537254,7.84849707 C100.278306,7.42899503 100.771419,7.06897463 101.433064,6.76843585 C102.094709,6.46737531 102.912403,6.31762769 103.886145,6.31762769 C105.434145,6.31762769 106.582661,6.65834265 107.332213,7.34081612 C108.080725,8.02381136 108.455242,8.9468202 108.455242,10.1119297 L108.455242,15.8039046 C108.455242,15.929129 108.411548,16.0381787 108.324161,16.1326188 C108.237294,16.2265372 108.124939,16.2729746 107.987096,16.2729746 L105.684342,16.2729746 C105.558983,16.2729746 105.44975,16.2265372 105.356641,16.1326188 C105.262492,16.0381787 105.215677,15.929129 105.215677,15.8039046 L105.215677,15.1454324 C104.941032,15.5341501 104.560794,15.850342 104.073923,16.0950515 C103.586532,16.3387175 103.006032,16.4608114 102.331903,16.4608114 C101.670258,16.4608114 101.067911,16.3324563 100.524862,16.0757461" id="Fill-9" fill="#020303"></path>
                <path d="M111.563985,12.5348149 L111.563985,9.05983531 L110.084647,9.05983531 C109.959808,9.05983531 109.850574,9.01287612 109.756945,8.91843599 C109.663316,8.82556116 109.616502,8.71546796 109.616502,8.5897217 L109.616502,6.97484755 C109.616502,6.83762238 109.663316,6.72439857 109.756945,6.6372632 C109.850574,6.54908429 109.959808,6.50473395 110.084647,6.50473395 L111.563985,6.50473395 L111.563985,3.40542782 C111.563985,3.26768088 111.6108,3.15550061 111.704429,3.0673217 C111.798058,2.98018633 111.907292,2.93635776 112.032131,2.93635776 L114.335405,2.93635776 C114.472727,2.93635776 114.585082,2.98018633 114.672469,3.0673217 C114.759856,3.15550061 114.80355,3.26768088 114.80355,3.40542782 L114.80355,6.50473395 L117.144276,6.50473395 C117.281598,6.50473395 117.397074,6.54908429 117.491223,6.6372632 C117.584332,6.72439857 117.631147,6.83762238 117.631147,6.97484755 L117.631147,8.5897217 C117.631147,8.72851218 117.584332,8.84069245 117.491223,8.92834959 C117.397074,9.0165285 117.281598,9.05983531 117.144276,9.05983531 L114.80355,9.05983531 L114.80355,12.2535816 C114.80355,12.6913455 114.884695,13.0231904 115.046985,13.2485945 C115.209276,13.4739986 115.471437,13.5872224 115.833469,13.5872224 L117.312808,13.5872224 C117.450131,13.5872224 117.562485,13.6336598 117.649873,13.7280999 C117.73726,13.8220183 117.780953,13.937851 117.780953,14.0755979 L117.780953,15.8036959 C117.780953,15.9289203 117.73726,16.0384918 117.649873,16.1324101 C117.562485,16.2263285 117.450131,16.2732877 117.312808,16.2732877 L115.533856,16.2732877 C112.887276,16.2732877 111.563985,15.027304 111.563985,12.5348149" id="Fill-11" fill="#020303"></path>
                <path d="M125.346751,10.3746403 L125.346751,10.3370729 C125.346751,9.73651714 125.215671,9.26953415 124.953509,8.93768925 C124.691348,8.60584435 124.323074,8.4399219 123.848687,8.4399219 C123.373779,8.4399219 123.008626,8.60584435 122.752707,8.93768925 C122.496788,9.26953415 122.369348,9.73651714 122.369348,10.3370729 L122.369348,10.3746403 L125.346751,10.3746403 Z M120.272058,15.2307416 C119.397667,14.4105212 118.948247,13.2182797 118.9238,11.6519301 L118.9238,11.0696362 C118.973215,9.57998653 119.435118,8.41487701 120.308989,7.57587293 C121.18286,6.73739061 122.362586,6.31788857 123.848687,6.31788857 C124.921779,6.31788857 125.829981,6.53337905 126.573292,6.96592531 C127.315562,7.39742803 127.871614,7.99224435 128.239888,8.74985252 C128.608683,9.50798245 128.7923,10.368379 128.7923,11.3331294 L128.7923,11.8021995 C128.7923,11.9399464 128.745485,12.0563008 128.651856,12.1502192 C128.558227,12.2436158 128.442751,12.2910967 128.305429,12.2910967 L122.369348,12.2910967 L122.369348,12.403277 C122.381312,12.967309 122.512392,13.4212478 122.76259,13.7656151 C123.011747,14.1099824 123.368058,14.2821661 123.829441,14.2821661 C124.129574,14.2821661 124.369368,14.2226845 124.550904,14.1031995 C124.7314,13.984758 124.903054,13.831358 125.065344,13.6429995 C125.178219,13.5182967 125.268727,13.4400314 125.337388,13.4082035 C125.40605,13.3768974 125.515283,13.3617661 125.66509,13.3617661 L128.118171,13.3617661 C128.230525,13.3617661 128.327275,13.3962029 128.408421,13.4650763 C128.489566,13.5339498 128.530138,13.6184763 128.530138,13.7186559 C128.530138,14.0442396 128.346001,14.4256525 127.977727,14.86446 C127.609453,15.3022239 127.072126,15.6784192 126.367308,15.9909586 C125.661969,16.3045416 124.828671,16.4610722 123.867413,16.4610722 C122.34438,16.4610722 121.145408,16.0504403 120.272058,15.2307416 L120.272058,15.2307416 Z" id="Fill-13" fill="#020303"></path>
                <path d="M62.126556,28.4393165 L65.4597496,28.4393165 L63.793673,23.648958 L62.126556,28.4393165 Z M57.3233867,33.3700307 C57.2417214,33.2891566 57.201669,33.1983688 57.201669,33.0981893 C57.201669,33.0230546 57.2073907,32.9667035 57.2203948,32.9286144 L61.5835077,20.8882797 C61.7083464,20.5246069 61.9580238,20.3435532 62.3325399,20.3435532 L65.2542859,20.3435532 C65.628802,20.3435532 65.8779593,20.5246069 66.0033181,20.8882797 L70.366431,32.9286144 C70.3783948,32.9667035 70.3851569,33.0230546 70.3851569,33.0981893 C70.3851569,33.1983688 70.3440641,33.2891566 70.2634391,33.3700307 C70.1817738,33.4514267 70.0917859,33.4926464 69.9919149,33.4926464 L67.5570399,33.4926464 C67.2579472,33.4926464 67.0452012,33.3548995 66.9208827,33.0788838 L66.2467536,31.2558239 L61.3400722,31.2558239 L60.6659431,33.0788838 C60.5411044,33.3548995 60.3288786,33.4926464 60.0292657,33.4926464 L57.5949109,33.4926464 C57.4950399,33.4926464 57.4040117,33.4514267 57.3233867,33.3700307 L57.3233867,33.3700307 Z" id="Fill-15" fill="#020303"></path>
                <path d="M72.5478315,32.5436535 C71.6677185,31.7860453 71.1964524,30.7299854 71.1340331,29.3786045 L71.1153073,28.6272576 L71.1340331,27.8571269 C71.1834484,26.5047024 71.6515935,25.4460337 72.5384685,24.6826861 C73.4248234,23.9188167 74.5795815,23.536882 76.0027427,23.536882 C77.0888395,23.536882 78.0001621,23.73098 78.7372306,24.1191759 C79.4732589,24.5073718 80.0225492,24.9675718 80.3851016,25.4997759 C80.7466137,26.03198 80.9406339,26.5172249 80.9656016,26.9560324 C80.9775653,27.0932576 80.9343919,27.2080467 80.834521,27.3030086 C80.7341298,27.3969269 80.6155331,27.4444079 80.4787306,27.4444079 L77.9689524,27.4444079 C77.8316298,27.4444079 77.7255169,27.4131018 77.6511339,27.3499678 C77.5757105,27.2873555 77.5070492,27.1866541 77.4446298,27.0489072 C77.3073073,26.6988004 77.1294121,26.4420902 76.9109444,26.2792984 C76.6929968,26.1165065 76.4147105,26.0345888 76.077646,26.0345888 C75.1158677,26.0345888 74.6170331,26.6737555 74.5795815,27.9510453 L74.5608556,28.6643031 L74.5795815,29.2846861 C74.5920653,29.9358535 74.723146,30.4148371 74.9728234,30.7216371 C75.2225008,31.0289589 75.590775,31.1818371 76.077646,31.1818371 C76.4396782,31.1818371 76.7242065,31.1035718 76.9296702,30.9465195 C77.135654,30.7905106 77.3073073,30.5306698 77.4446298,30.166997 C77.5070492,30.0297718 77.5757105,29.9295922 77.6511339,29.86698 C77.7255169,29.8043678 77.8316298,29.7725399 77.9689524,29.7725399 L80.4787306,29.7725399 C80.6030492,29.7725399 80.715404,29.8168902 80.8157952,29.9040256 C80.915146,29.9916827 80.9656016,30.0981235 80.9656016,30.2238698 C80.9656016,30.6120657 80.7939484,31.0780052 80.4506419,31.6227317 C80.1068153,32.1669365 79.560646,32.6469637 78.8116137,33.0607263 C78.0625815,33.4734453 77.1268113,33.6805875 76.0027427,33.6805875 C74.5795815,33.6805875 73.4279444,33.3012616 72.5478315,32.5436535" id="Fill-17" fill="#020303"></path>
                <path d="M83.7180871,29.7539649 L83.7180871,26.2795071 L82.2387484,26.2795071 C82.1139097,26.2795071 82.0046758,26.2320261 81.9110468,26.1381078 C81.8174177,26.0447112 81.7706032,25.934618 81.7706032,25.8088717 L81.7706032,24.1939976 C81.7706032,24.0567724 81.8174177,23.9435486 81.9110468,23.8564132 C82.0046758,23.7682343 82.1139097,23.7238839 82.2387484,23.7238839 L83.7180871,23.7238839 L83.7180871,20.6245778 C83.7180871,20.4873527 83.7649016,20.3746506 83.8585306,20.2869935 C83.9521597,20.1998581 84.0613935,20.1555078 84.1862323,20.1555078 L86.4895065,20.1555078 C86.626829,20.1555078 86.7391839,20.1998581 86.826571,20.2869935 C86.9139581,20.3746506 86.9576516,20.4873527 86.9576516,20.6245778 L86.9576516,23.7238839 L89.2983774,23.7238839 C89.4357,23.7238839 89.5511758,23.7682343 89.645325,23.8564132 C89.7384339,23.9435486 89.7852484,24.0567724 89.7852484,24.1939976 L89.7852484,25.8088717 C89.7852484,25.9476622 89.7384339,26.0598424 89.645325,26.1480214 C89.5511758,26.2356785 89.4357,26.2795071 89.2983774,26.2795071 L86.9576516,26.2795071 L86.9576516,29.4727316 C86.9576516,29.9104955 87.0387968,30.2423404 87.2010871,30.4677445 C87.3633774,30.6931486 87.6255387,30.8063724 87.987571,30.8063724 L89.4669097,30.8063724 C89.6042323,30.8063724 89.7165871,30.852288 89.8039742,30.9472499 C89.8913613,31.0411683 89.9350548,31.1564792 89.9350548,31.2947479 L89.9350548,33.0233676 C89.9350548,33.1485921 89.8913613,33.2576418 89.8039742,33.3520819 C89.7165871,33.4460003 89.6042323,33.4924377 89.4669097,33.4924377 L87.6879581,33.4924377 C85.0413774,33.4924377 83.7180871,32.2459322 83.7180871,29.7539649" id="Fill-19" fill="#020303"></path>
                <path d="M91.5923927,33.351821 C91.4992839,33.2573809 91.4519492,33.1478095 91.4519492,33.0231067 L91.4519492,24.1942584 C91.4519492,24.0565115 91.4992839,23.9432877 91.5923927,23.8561523 C91.6860218,23.7684952 91.7952556,23.7241448 91.9200944,23.7241448 L94.2608202,23.7241448 C94.3986629,23.7241448 94.5136185,23.7684952 94.6077677,23.8561523 C94.7013968,23.9432877 94.7476911,24.0565115 94.7476911,24.1942584 L94.7476911,33.0231067 C94.7476911,33.1608537 94.7013968,33.2740775 94.6077677,33.3612129 C94.5136185,33.44887 94.3986629,33.4926986 94.2608202,33.4926986 L91.9200944,33.4926986 C91.7952556,33.4926986 91.6860218,33.4457394 91.5923927,33.351821 M91.5830298,22.2313646 C91.4956427,22.1374462 91.4519492,22.0221353 91.4519492,21.8838666 L91.4519492,20.1364632 C91.4519492,19.9987163 91.4992839,19.8834054 91.5923927,19.789487 C91.6860218,19.6955686 91.7952556,19.6480877 91.9200944,19.6480877 L94.2608202,19.6480877 C94.3986629,19.6480877 94.5136185,19.6955686 94.6077677,19.789487 C94.7013968,19.8834054 94.7476911,19.9987163 94.7476911,20.1364632 L94.7476911,21.8838666 C94.7476911,22.0221353 94.7013968,22.1374462 94.6077677,22.2313646 C94.5136185,22.3252829 94.3986629,22.3722421 94.2608202,22.3722421 L91.9200944,22.3722421 C91.7827718,22.3722421 91.6704169,22.3252829 91.5830298,22.2313646" id="Fill-21" fill="#020303"></path>
                <path d="M102.706783,30.8336609 C102.95646,30.515382 103.100025,30.0233541 103.137477,29.3591425 C103.14996,29.2354833 103.156202,28.9839908 103.156202,28.6077956 C103.156202,28.2331656 103.14996,27.9821949 103.137477,27.8564486 C103.100025,27.2052813 102.95646,26.7179493 102.706783,26.3913221 C102.457106,26.0657384 102.076348,25.9029466 101.564509,25.9029466 C101.05267,25.9029466 100.671392,26.0657384 100.421715,26.3913221 C100.172557,26.7179493 100.028993,27.2052813 99.9915411,27.8564486 L99.9728153,28.6077956 L99.9915411,29.3591425 C100.028993,30.0233541 100.172557,30.515382 100.421715,30.8336609 C100.671392,31.1529833 101.05267,31.3126446 101.564509,31.3126446 C102.076348,31.3126446 102.457106,31.1529833 102.706783,30.8336609 M97.9410653,32.5815861 C97.098404,31.848501 96.6396218,30.8060071 96.5641984,29.4530609 C96.5517145,29.290269 96.5459927,29.0090357 96.5459927,28.6077956 C96.5459927,28.207599 96.5517145,27.9253221 96.5641984,27.7625303 C96.6396218,26.4356724 97.1103677,25.398918 97.9785169,24.6538323 C98.8456258,23.9087466 100.040956,23.5367255 101.564509,23.5367255 C103.087541,23.5367255 104.282872,23.9087466 105.150501,24.6538323 C106.01813,25.398918 106.489396,26.4356724 106.564299,27.7625303 C106.589267,28.0891575 106.602271,28.3703908 106.602271,28.6077956 C106.602271,28.8462439 106.589267,29.1274772 106.564299,29.4530609 C106.489396,30.8060071 106.030614,31.848501 105.188473,32.5815861 C104.345291,33.3141493 103.137477,33.680431 101.564509,33.680431 C99.9915411,33.680431 98.7837266,33.3141493 97.9410653,32.5815861" id="Fill-23" fill="#020303"></path>
                <path d="M108.52099,33.351821 C108.427881,33.2573809 108.380546,33.1478095 108.380546,33.0231067 L108.380546,24.1942584 C108.380546,24.0565115 108.427881,23.9432877 108.52099,23.8561523 C108.614619,23.7684952 108.723853,23.7241448 108.848692,23.7241448 L111.151966,23.7241448 C111.289288,23.7241448 111.401643,23.7684952 111.48955,23.8561523 C111.576417,23.9432877 111.620111,24.0565115 111.620111,24.1942584 L111.620111,24.908038 C111.957696,24.4942754 112.39099,24.1629523 112.921554,23.9119816 C113.452119,23.6620544 114.061228,23.5368299 114.747321,23.5368299 C115.459421,23.5368299 116.092978,23.6996217 116.64851,24.0252054 C117.203522,24.350789 117.640978,24.8323816 117.959317,25.4710265 C118.277655,26.1107149 118.436825,26.8803237 118.436825,27.7819401 L118.436825,33.0231067 C118.436825,33.1478095 118.393131,33.2573809 118.305744,33.351821 C118.218357,33.4457394 118.106002,33.4926986 117.968679,33.4926986 L115.478147,33.4926986 C115.340304,33.4926986 115.225349,33.44887 115.13172,33.3612129 C115.038091,33.2740775 114.990756,33.1608537 114.990756,33.0231067 L114.990756,27.8946421 C114.990756,27.3311319 114.857075,26.8991074 114.588671,26.5990904 C114.320268,26.2969863 113.929627,26.1477605 113.418308,26.1477605 C112.918954,26.1477605 112.525192,26.3016822 112.238062,26.6079605 C111.950933,26.9152822 111.807369,27.3436544 111.807369,27.8946421 L111.807369,33.0231067 C111.807369,33.1478095 111.763675,33.2573809 111.676288,33.351821 C111.588901,33.4457394 111.476546,33.4926986 111.339744,33.4926986 L108.848692,33.4926986 C108.723853,33.4926986 108.614619,33.4457394 108.52099,33.351821" id="Fill-25" fill="#020303"></path>
                <path d="M58.166204,50.5798411 C58.072575,50.4927057 58.0257605,50.3789601 58.0257605,50.2422567 L58.0257605,47.7628118 C58.0257605,47.6240214 58.072575,47.5081887 58.166204,47.4147921 C58.2593129,47.3208737 58.3747887,47.2744363 58.5126315,47.2744363 L60.9844379,47.2744363 C61.1217605,47.2744363 61.2341153,47.3208737 61.3215024,47.4147921 C61.4088895,47.5081887 61.4525831,47.6240214 61.4525831,47.7628118 L61.4525831,50.2422567 C61.4525831,50.3674812 61.4088895,50.4765309 61.3215024,50.5699275 C61.2341153,50.6648894 61.1217605,50.7113268 60.9844379,50.7113268 L58.5126315,50.7113268 C58.3747887,50.7113268 58.2593129,50.6674982 58.166204,50.5798411" id="Fill-27" fill="#020303"></path>
                <path d="M64.0929218,46.9728018 L64.0929218,43.4978222 L62.6135831,43.4978222 C62.4887444,43.4978222 62.3795105,43.4508631 62.2858815,43.3564229 C62.1922524,43.2640699 62.1454379,43.1539767 62.1454379,43.0277086 L62.1454379,41.4133563 C62.1454379,41.2756093 62.1922524,41.1623855 62.2858815,41.0752501 C62.3795105,40.9870712 62.4887444,40.9427209 62.6135831,40.9427209 L64.0929218,40.9427209 L64.0929218,37.8434148 C64.0929218,37.7056678 64.1397363,37.5934876 64.2333653,37.5053086 C64.3269944,37.4181733 64.4362282,37.3743447 64.5610669,37.3743447 L66.8643411,37.3743447 C67.0016637,37.3743447 67.1140185,37.4181733 67.2014056,37.5053086 C67.2887927,37.5934876 67.3324863,37.7056678 67.3324863,37.8434148 L67.3324863,40.9427209 L69.6732121,40.9427209 C69.8105347,40.9427209 69.9265306,40.9870712 70.0201597,41.0752501 C70.1132685,41.1623855 70.1600831,41.2756093 70.1600831,41.4133563 L70.1600831,43.0277086 C70.1600831,43.1664991 70.1132685,43.2786794 70.0201597,43.3663365 C69.9265306,43.4545154 69.8105347,43.4978222 69.6732121,43.4978222 L67.3324863,43.4978222 L67.3324863,46.6915685 C67.3324863,47.1293324 67.4136315,47.4616991 67.5759218,47.6865814 C67.7382121,47.9119855 68.0003734,48.0257311 68.3624056,48.0257311 L69.8417444,48.0257311 C69.9790669,48.0257311 70.0914218,48.0716467 70.1788089,48.1660869 C70.266196,48.260527 70.3098895,48.3758379 70.3098895,48.5135848 L70.3098895,50.2422046 C70.3098895,50.3669073 70.266196,50.4764787 70.1788089,50.5709188 C70.0914218,50.6643154 69.9790669,50.7112746 69.8417444,50.7112746 L68.0627927,50.7112746 C65.4162121,50.7112746 64.0929218,49.465291 64.0929218,46.9728018" id="Fill-29" fill="#020303"></path>
                <g id="Group-33" transform="translate(71.262097, 40.463789)">
                    <mask id="mask-2" fill="white">
                        <use xlink:href="#path-1"></use>
                    </mask>
                    <g id="Clip-32"></g>
                    <path d="M6.61359073,4.34909871 L6.61359073,4.31153136 C6.61359073,3.71045381 6.48251008,3.24399259 6.22034879,2.91214769 C5.9581875,2.57978102 5.58991331,2.41438034 5.11552621,2.41438034 C4.64061895,2.41438034 4.27546573,2.57978102 4.01954637,2.91214769 C3.76362702,3.24399259 3.6361875,3.71045381 3.6361875,4.31153136 L3.6361875,4.34909871 L6.61359073,4.34909871 Z M1.53889718,9.20520007 C0.664506048,8.38445789 0.215086694,7.19221639 0.190639113,5.62586673 L0.190639113,5.04409463 C0.240054435,3.55444497 0.701957661,2.38933544 1.57582863,1.55033136 C2.4496996,0.711327279 3.6294254,0.292347007 5.11552621,0.292347007 C6.18861895,0.292347007 7.09682056,0.507837483 7.84013105,0.940383741 C8.58240121,1.37188646 9.13845363,1.96670279 9.50672782,2.72431095 C9.87500202,3.48244088 10.0591391,4.34231571 10.0591391,5.30758782 L10.0591391,5.77613612 C10.0591391,5.91440483 10.0123246,6.03075925 9.91869556,6.12415585 C9.82506653,6.21807422 9.70959073,6.26555517 9.57226815,6.26555517 L3.6361875,6.26555517 L3.6361875,6.37773544 C3.64815121,6.94176741 3.77923185,7.39570619 4.02942944,7.74007354 C4.27858669,8.08444088 4.63489718,8.25610279 5.09628024,8.25610279 C5.39641331,8.25610279 5.63620766,8.19662116 5.81774395,8.07765789 C5.99823992,7.95921639 6.16989315,7.80529463 6.33218347,7.61745789 C6.44505847,7.4922334 6.53556653,7.4139681 6.60422782,7.3821402 C6.67288911,7.35135585 6.78212298,7.33622456 6.93192944,7.33622456 L9.38501008,7.33622456 C9.49736492,7.33622456 9.59411492,7.37066129 9.67526008,7.43953476 C9.75640524,7.50840823 9.79697782,7.59293476 9.79697782,7.69311435 C9.79697782,8.01817626 9.61284073,8.40011095 9.24456653,8.83839667 C8.87629234,9.27616061 8.33896573,9.65287762 7.63414718,9.96541707 C6.92880847,10.2784783 6.09551008,10.4355307 5.13425202,10.4355307 C3.61121976,10.4355307 2.41224798,10.0248987 1.53889718,9.20520007 L1.53889718,9.20520007 Z" id="Fill-31" fill="#020303" mask="url(#mask-2)"></path>
                </g>
                <path d="M84.0833444,49.7625426 C83.2032315,49.0049344 82.7319653,47.9493963 82.669546,46.5980154 L82.6508202,45.8461467 L82.669546,45.0760161 C82.7189613,43.7235916 83.1871065,42.6649229 84.0739815,41.902097 C84.9603363,41.1377059 86.1150944,40.7557712 87.5382556,40.7557712 C88.6238323,40.7557712 89.535675,40.9498691 90.2727435,41.338065 C91.0087718,41.7267827 91.5580621,42.186461 91.9200944,42.718665 C92.2821266,43.2508691 92.4756266,43.7355922 92.5011145,44.1743997 C92.5130782,44.3126684 92.4699048,44.4274576 92.3700339,44.5213759 C92.2696427,44.6152943 92.151046,44.663297 92.0142435,44.663297 L89.5044653,44.663297 C89.3666226,44.663297 89.2610298,44.6314691 89.1861266,44.5688569 C89.1112234,44.5062446 89.0425621,44.406065 88.9801427,44.2677963 C88.8428202,43.9176895 88.664925,43.6615011 88.4464573,43.4981875 C88.2279895,43.3359174 87.9502234,43.253478 87.6131589,43.253478 C86.6513806,43.253478 86.152546,43.8926446 86.1150944,45.1694127 L86.0963685,45.8831922 L86.1150944,46.5035752 C86.1270581,47.1547426 86.2581387,47.6337263 86.5083363,47.9405263 C86.7580137,48.2483698 87.1262879,48.401248 87.6131589,48.401248 C87.9751911,48.401248 88.2591992,48.322461 88.4651831,48.1659303 C88.6711669,48.0099215 88.8428202,47.7500807 88.9801427,47.3864079 C89.0425621,47.2491827 89.1112234,47.1484814 89.1861266,47.0858691 C89.2610298,47.0232569 89.3666226,46.9919507 89.5044653,46.9919507 L92.0142435,46.9919507 C92.1385621,46.9919507 92.2509169,47.0363011 92.3513081,47.1234365 C92.4506589,47.2110936 92.5011145,47.3175344 92.5011145,47.4427589 C92.5011145,47.8309548 92.3289411,48.2974161 91.9856347,48.8421426 C91.6423282,49.3863473 91.0961589,49.8658528 90.3471266,50.2790936 C89.5980944,50.6918127 88.661804,50.8989548 87.5382556,50.8989548 C86.1150944,50.8989548 84.9634573,50.5201507 84.0833444,49.7625426" id="Fill-34" fill="#020303"></path>
                <path d="M94.2510931,50.5798411 C94.1579843,50.4927057 94.1106496,50.3789601 94.1106496,50.2422567 L94.1106496,37.8434669 C94.1106496,37.7062418 94.1579843,37.593018 94.2510931,37.5053608 C94.3447222,37.4182254 94.460198,37.3738751 94.5980407,37.3738751 L97.1255044,37.3738751 C97.262827,37.3738751 97.378823,37.4182254 97.4719319,37.5053608 C97.5655609,37.593018 97.6123754,37.7062418 97.6123754,37.8434669 L97.6123754,42.0332697 C98.3364399,41.1812214 99.316944,40.7559799 100.552847,40.7559799 C101.264428,40.7559799 101.907347,40.9182499 102.481605,41.2438336 C103.055343,41.5694173 103.504762,42.0510098 103.829863,42.6901765 C104.154444,43.3293431 104.316734,44.098952 104.316734,45.0010901 L104.316734,50.2422567 C104.316734,50.3789601 104.26992,50.4927057 104.176291,50.5798411 C104.082662,50.6674982 103.967186,50.7113268 103.829863,50.7113268 L101.283154,50.7113268 C101.158315,50.7113268 101.048561,50.6648894 100.955452,50.5699275 C100.861823,50.4765309 100.815008,50.3674812 100.815008,50.2422567 L100.815008,45.1127486 C100.815008,44.5628044 100.677166,44.1339105 100.403041,43.8271105 C100.128396,43.5203105 99.7346335,43.3669105 99.2227948,43.3669105 C98.7234399,43.3669105 98.330198,43.5203105 98.0435891,43.8271105 C97.7559399,44.1339105 97.6123754,44.5628044 97.6123754,45.1127486 L97.6123754,50.2422567 C97.6123754,50.3789601 97.5655609,50.4927057 97.4719319,50.5798411 C97.378823,50.6674982 97.262827,50.7113268 97.1255044,50.7113268 L94.5980407,50.7113268 C94.460198,50.7113268 94.3447222,50.6674982 94.2510931,50.5798411" id="Fill-36" fill="#020303"></path>
                <g id="Group-40" transform="translate(21.846774, 0.287599)">
                    <mask id="mask-4" fill="white">
                        <use xlink:href="#path-3"></use>
                    </mask>
                    <g id="Clip-39"></g>
                    <path d="M1.56157621,14.3223423 C2.42348347,14.3223423 3.12206008,13.6216069 3.12206008,12.7570362 L3.12206008,1.79937156 C3.12206008,0.934800816 2.42348347,0.234065442 1.56157621,0.234065442 C0.699668952,0.234065442 0.00109233871,0.934800816 0.00109233871,1.79937156 L0.00109233871,12.7570362 C0.00109233871,13.6216069 0.699668952,14.3223423 1.56157621,14.3223423" id="Fill-38" fill="#020303" mask="url(#mask-4)"></path>
                </g>
                <path d="M31.9912718,27.1328598 C35.0082073,27.1328598 37.4529653,24.6800251 37.4529653,21.6542884 C37.4529653,18.6280299 35.0082073,16.1751952 31.9912718,16.1751952 C28.9743363,16.1751952 26.5295782,18.6280299 26.5295782,21.6542884 C26.5295782,24.6800251 28.9743363,27.1328598 31.9912718,27.1328598" id="Fill-41" fill="#020303"></path>
                <path d="M38.4185927,40.7742939 C33.2762782,40.1622593 30.5048589,39.0305429 28.2634839,38.1002293 C26.2291331,37.254964 24.4704677,36.5244878 21.8478145,36.5244878 C18.9021411,36.5244878 17.2896411,37.699511 15.5814315,38.9444511 C14.1442258,39.9911191 12.509879,41.1718817 9.53715726,41.9414905 C8.24611694,40.7236824 7.11840726,39.3415171 6.17899597,37.8242137 C11.7566855,37.1292178 14.3226411,35.1798899 16.2425565,33.713198 C17.7270968,32.5783511 18.7065605,31.8285695 20.6774516,31.8285695 C22.6629073,31.8285695 24.1609718,32.4865198 26.2338145,33.3964844 C29.2689556,34.7290817 33.3210121,36.4983994 41.0786976,37.0968681 C40.3312258,38.4247695 39.4329073,39.6524912 38.4185927,40.7742939 M12.5202823,44.275362 C14.7460524,43.4186178 16.1936613,42.366732 17.4144798,41.4776382 C18.9208669,40.3808803 19.9159355,39.6556218 21.8478145,39.6556218 C23.8504355,39.6556218 25.200254,40.217045 27.0702339,40.992915 C29.0806573,41.827745 31.476,42.8159749 35.4058185,43.5052314 C32.0408952,45.9935463 27.899371,47.4821524 23.4082984,47.4821524 C19.4004556,47.4821524 15.670379,46.2956504 12.5202823,44.275362 M31.7688508,5.22097422 C30.9641613,4.90843476 30.0622016,5.31489259 29.7542661,6.12206878 C29.4458105,6.9302885 29.8478952,7.83503544 30.6531048,8.14392252 C38.4544839,11.1414837 43.695629,18.7728729 43.695629,27.1326511 C43.695629,29.5667021 43.2451694,31.8917035 42.4607661,34.0565218 C34.47525,33.5952783 30.6187742,31.9042259 27.4848024,30.5278001 C25.248629,29.5463531 23.31675,28.6979572 20.6774516,28.6979572 C17.653754,28.6979572 15.9746734,29.9809865 14.35125,31.2222742 C12.4068871,32.7087933 10.204004,34.381062 4.64139919,34.8381314 C3.66765726,32.4583443 3.1214879,29.8599361 3.1214879,27.1326511 C3.1214879,18.7728729 8.3621129,11.1414837 16.1634919,8.14392252 C16.9687016,7.83503544 17.3713065,6.9302885 17.0623306,6.12206878 C16.7549153,5.31489259 15.8524355,4.90895653 15.047746,5.22097422 C6.04739516,8.67873544 0,17.4846259 0,27.1326511 C0,40.0803416 10.5010161,50.6127647 23.4082984,50.6127647 C36.3155806,50.6127647 46.8165968,40.0803416 46.8165968,27.1326511 C46.8165968,17.4846259 40.7692016,8.67873544 31.7688508,5.22097422" id="Fill-43" fill="#020303"></path>
            </g>
        </g>
    </g>
</svg>