<?xml version="1.0" encoding="UTF-8"?>
<svg width="53px" height="49px" viewBox="0 0 53 49" version="1.1" xmlns="http://www.w3.org/2000/svg" xmlns:xlink="http://www.w3.org/1999/xlink">
    <title>Group 8 Copy 13</title>
    <defs>
        <polygon id="path-1" points="0.000216 0.0444469246 48.60054 0.0444469246 48.60054 47.3995655 0.000216 47.3995655"></polygon>
    </defs>
    <g id="Page-1" stroke="none" stroke-width="1" fill="none" fill-rule="evenodd">
        <g id="Desktop-Copy-41" transform="translate(-69.000000, -62.000000)">
            <g id="Group-10" transform="translate(69.000000, 60.000000)">
                <g id="Group-8-Copy-13" transform="translate(26.500000, 26.500000) rotate(-270.000000) translate(-26.500000, -26.500000) translate(2.000000, 0.000000)">
                    <path d="M24.45,14.7 C25.36135,14.7 26.1,13.9688111 26.1,13.0666667 L26.1,1.63333333 C26.1,0.731188889 25.36135,0 24.45,0 C23.53865,0 22.8,0.731188889 22.8,1.63333333 L22.8,13.0666667 C22.8,13.9688111 23.53865,14.7 24.45,14.7" id="Fill-1" fill="#FF7900"></path>
                    <g id="Group-7" transform="translate(0.000000, 4.500000)">
                        <mask id="mask-2" fill="white">
                            <use xlink:href="#path-1"></use>
                        </mask>
                        <g id="Clip-6"></g>
                        <path d="M30.887676,1.09208923 C31.207356,0.251932246 32.143716,-0.171133231 32.979096,0.154176424 C42.323256,3.75321996 48.600756,12.9189145 48.600756,22.9606099 C48.600756,36.4367931 37.699236,47.3995655 24.300216,47.3995655 C10.901196,47.3995655 0.000215999999,36.4367931 0.000215999999,22.9606099 C0.000215999999,12.9189145 6.277716,3.75321996 15.620796,0.154176424 C16.456176,-0.170590143 17.393076,0.251932246 17.712216,1.09208923 C17.9055405,1.59878568 17.8307163,2.14237355 17.557615,2.56459379 C9.38639113,5.35823918 3.46738705,13.0435545 3.2545925,22.1475194 C3.24552162,22.417892 3.240216,22.6888812 3.240216,22.9606099 C3.240216,25.7993303 3.806676,28.5039081 4.817556,30.9803889 C4.85404839,30.9773826 4.89131634,30.9743625 4.92935071,30.9713292 C8.15071165,38.5568932 15.6398651,43.8743802 24.3649733,43.8743802 C36.0271893,43.8743802 45.4812834,34.3743066 45.4812834,22.6553719 C45.4812834,13.2687277 39.4158148,5.30563958 31.00848,2.50781952 C30.7634526,2.09528429 30.7030487,1.5768066 30.887676,1.09208923 Z" id="Combined-Shape" fill="#FF7900" mask="url(#mask-2)"></path>
                    </g>
                </g>
            </g>
        </g>
    </g>
</svg>