<svg width="53" height="49" xmlns="http://www.w3.org/2000/svg" xmlns:xlink="http://www.w3.org/1999/xlink"><defs><path id="a" d="M0 .044h48.6V47.4H0z"/></defs><g fill="none" fill-rule="evenodd"><path d="M14.7 24.55c0-.911-.731-1.65-1.633-1.65H1.633C.731 22.9 0 23.639 0 24.55c0 .911.731 1.65 1.633 1.65h11.434c.902 0 1.633-.739 1.633-1.65" fill="#1CDCB4"/><g transform="rotate(-90 26.75 22.25)"><mask id="b" fill="#fff"><use xlink:href="#a"/></mask><path d="M30.888 1.092a1.613 1.613 0 012.091-.938c9.344 3.6 15.622 12.765 15.622 22.807C48.6 36.437 37.699 47.4 24.3 47.4 10.9 47.4 0 36.437 0 22.96 0 12.92 6.277 3.754 15.62.155a1.613 1.613 0 012.091.938c.194.507.119 1.05-.154 1.473A21.216 21.216 0 003.255 22.148a21.167 21.167 0 001.563 8.833l.111-.01c3.222 7.586 10.71 12.903 19.436 12.903 11.662 0 21.116-9.5 21.116-21.219 0-9.386-6.065-17.35-14.473-20.147a1.63 1.63 0 01-.12-1.416z" fill="#1CDCB4" mask="url(#b)"/></g></g></svg>