<?xml version="1.0" encoding="utf-8"?>
<!-- Generator: Adobe Illustrator 22.0.1, SVG Export Plug-In . SVG Version: 6.00 Build 0)  -->
<svg version="1.1" id="Layer_1" xmlns="http://www.w3.org/2000/svg" xmlns:xlink="http://www.w3.org/1999/xlink" x="0px" y="0px"
	 viewBox="0 0 204 204" style="enable-background:new 0 0 204 204;" xml:space="preserve">
<style type="text/css">
	.st0{fill:#000000;}
</style>
<path class="st0" d="M102.5-0.5c-56.3,0-102,45.7-102,102s45.7,102,102,102s102-45.7,102-102S158.8-0.5,102.5-0.5z M107.3,182.4v-28
	l18.4-18.4c2.3,1.3,4.9,2,7.7,2c8.7,0,15.7-7,15.7-15.7s-7-15.7-15.7-15.7s-15.7,7-15.7,15.7c0,2.2,0.5,4.3,1.3,6.2l-11.7,11.7
	v-38.8h-10v81c-42.3-2.7-75.8-37.9-75.8-80.8c0-44.7,36.3-81,81-81s81,36.3,81,81C183.5,144.6,149.7,179.8,107.3,182.4z
	 M127.8,122.2c0-3.2,2.6-5.7,5.7-5.7s5.7,2.6,5.7,5.7s-2.6,5.7-5.7,5.7S127.8,125.4,127.8,122.2z"/>
</svg>
