<?xml version="1.0" encoding="UTF-8"?>
<svg width="27px" height="24px" viewBox="0 0 27 24" version="1.1" xmlns="http://www.w3.org/2000/svg" xmlns:xlink="http://www.w3.org/1999/xlink">
    <title>Group 11</title>
    <g id="Page-1" stroke="none" stroke-width="1" fill="none" fill-rule="evenodd" stroke-linecap="round" stroke-linejoin="round">
        <g id="Desktop-Copy-41" transform="translate(-78.000000, -862.000000)" stroke="#212121" stroke-width="1.28">
            <g id="Group" transform="translate(105.000000, 989.000000) rotate(-90.000000) translate(-105.000000, -989.000000) translate(-22.000000, 960.000000)">
                <g id="Group-11" transform="translate(231.000000, 3.000000)">
                    <path d="M5.52,16.512 C2.47138818,16.512 0,14.0477753 0,11.008 C0,7.96822474 2.47138818,5.504 5.52,5.504 L5.52,5.504 L5.52073952,5.4129813 C5.56948549,2.41518666 8.0218743,0 11.04,0 C14.0886118,0 16.56,2.46422474 16.56,5.504 L16.56,5.504 L16.6512833,5.50473738 C19.6577924,5.55334205 22.08,7.99862249 22.08,11.008 C22.08,14.0477753 19.6086118,16.512 16.56,16.512" id="Path"></path>
                    <line x1="11.04" y1="10.4" x2="11.04" y2="24.032" id="Line-11"></line>
                    <polyline id="Path" transform="translate(11.040000, 20.768000) rotate(-315.000000) translate(-11.040000, -20.768000) " points="13.824 17.984 13.824 23.552 8.256 23.552"></polyline>
                </g>
            </g>
        </g>
    </g>
</svg>